<svg width="240" height="240" viewBox="0 0 240 240" fill="none" xmlns="http://www.w3.org/2000/svg">
<path d="M97 37L117 37L117 137C117 142.523 112.523 147 107 147V147C101.477 147 97 142.523 97 137L97 37Z" fill="#0090FF"/>
<path d="M106.232 7.92187C106.632 7.44212 107.368 7.44212 107.768 7.92187L130.633 35.3598C131.176 36.0112 130.713 37 129.865 37L84.1351 37C83.2872 37 82.8241 36.0111 83.3668 35.3598L106.232 7.92187Z" fill="#0090FF"/>
<path d="M152 202L132 202L132 102C132 96.4772 136.477 92 142 92V92C147.523 92 152 96.4772 152 102L152 202Z" fill="#0090FF"/>
<path d="M142.768 231.078C142.368 231.558 141.632 231.558 141.232 231.078L118.367 203.64C117.824 202.989 118.287 202 119.135 202L164.865 202C165.713 202 166.176 202.989 165.633 203.64L142.768 231.078Z" fill="#0090FF"/>
</svg>
